<svg xmlns="http://www.w3.org/2000/svg" xmlns:xlink="http://www.w3.org/1999/xlink" viewBox="0 0 456 456"><defs><style>.cls-1{fill:url(#Gradient_bez_nazwy_120);}.cls-2{fill:url(#Gradient_bez_nazwy_41);}.cls-3{fill:none;}.cls-4{fill:url(#Gradient_bez_nazwy_129);}.cls-5{fill:#1a1a1a;}</style><linearGradient id="Gradient_bez_nazwy_120" x1="98.45" y1="357.55" x2="474.01" y2="-18.01" gradientUnits="userSpaceOnUse"><stop offset="0.03"/><stop offset="0.15" stop-color="#1a1a1a"/><stop offset="0.21" stop-color="#1d1d1d"/><stop offset="0.25" stop-color="#262626"/><stop offset="0.28" stop-color="#333"/><stop offset="0.32" stop-color="#373737"/><stop offset="0.35" stop-color="#434343"/><stop offset="0.38" stop-color="#575757"/><stop offset="0.42" stop-color="#737373"/><stop offset="0.45" stop-color="#979797"/><stop offset="0.45" stop-color="#999"/><stop offset="0.45" stop-color="#898989"/><stop offset="0.46" stop-color="#6e6e6e"/><stop offset="0.47" stop-color="#585858"/><stop offset="0.48" stop-color="#474747"/><stop offset="0.5" stop-color="#3c3c3c"/><stop offset="0.52" stop-color="#353535"/><stop offset="0.57" stop-color="#333"/><stop offset="0.67" stop-color="#1a1a1a"/><stop offset="0.77" stop-color="#1a1a1a"/><stop offset="0.96"/></linearGradient><linearGradient id="Gradient_bez_nazwy_41" x1="396.39" y1="59.61" x2="43.37" y2="412.62" gradientUnits="userSpaceOnUse"><stop offset="0.04" stop-color="#fff" stop-opacity="0.5"/><stop offset="0.24" stop-color="#cce0f4" stop-opacity="0.1"/><stop offset="0.43" stop-color="#c2d5f4" stop-opacity="0.11"/><stop offset="0.53" stop-color="#a4b4f6" stop-opacity="0.14"/><stop offset="0.56" stop-color="#616a91" stop-opacity="0.25"/><stop offset="0.6" stop-color="#292d3d" stop-opacity="0.34"/><stop offset="0.66" stop-color="#090a0d" stop-opacity="0.39"/><stop offset="0.83" stop-opacity="0.4"/></linearGradient><linearGradient id="Gradient_bez_nazwy_129" x1="93.79" y1="348.46" x2="374.08" y2="68.16" gradientUnits="userSpaceOnUse"><stop offset="0.04" stop-color="#999"/><stop offset="0.2" stop-color="#b3b3b3"/><stop offset="0.28" stop-color="#b9b9b9"/><stop offset="0.39" stop-color="#c9c9c9"/><stop offset="0.51" stop-color="#e3e3e3"/><stop offset="0.59" stop-color="#f8f8f8"/><stop offset="0.68" stop-color="#e4e4e4"/><stop offset="0.8" stop-color="#d2d2d2"/><stop offset="0.88" stop-color="#ccc"/></linearGradient></defs><title>Github</title><g id="Warstwa_2" data-name="Warstwa 2"><g id="Warstwa_1-2" data-name="Warstwa 1"><rect class="cls-1" width="456" height="456" rx="89.5"/><path class="cls-2" d="M366.5,0H89.5C40.27,0,0,40.28,0,89.5v277C0,415.72,40.27,456,89.5,456h277c49.22,0,89.5-40.28,89.5-89.5V89.5C456,40.28,415.72,0,366.5,0Zm57.23,352.1a71.85,71.85,0,0,1-71.64,71.64H103.9A71.85,71.85,0,0,1,32.26,352.1V103.9A71.85,71.85,0,0,1,103.9,32.26H352.09a71.85,71.85,0,0,1,71.64,71.64Z"/><path class="cls-3" d="M223,88c3.42.14,8.65.41,15,1,25.5,2.35,26.34,5.76,36,5,16.11-1.27,17.76-11.09,41-18a100.58,100.58,0,0,1,23-4c7.34,17.17,7.93,27.59,7,34-1.1,7.62-.44,15.46-2,23a9.1,9.1,0,0,0,0,4,11,11,0,0,0,3,5c2.24,2.46,3.84,5.46,6,8,3.67,4.33,8,15.79,10,29,5.32,34.79-6,63-6,63-3.94,9.81-10.67,26-27,39-9.61,7.64-19,11.3-26,14a122.79,122.79,0,0,1-39,8,56.73,56.73,0,0,1,7,10c7.68,14,7.22,27.69,7,36-.5,18.88-.61,41.68-1,69l-54,1Z"/><path class="cls-4" d="M377.29,230.58c-4.24,10.56-11.48,28-29.05,42-10.34,8.22-20.4,12.16-28,15.06a132.06,132.06,0,0,1-42,8.61A60.87,60.87,0,0,1,285.84,307c8.26,15.08,7.77,29.78,7.53,38.72-.41,15.82-.58,34.19-.83,55.42A52.37,52.37,0,0,0,298,424H169.33l.67-1a38.81,38.81,0,0,0,5.91-18.91c-.18-14.91-.32-28.43-.52-40.68a224.2,224.2,0,0,1-31.55.57c-15.28-.82-20.33-2.69-23.67-4.3-9.69-4.66-15.43-12-19.37-17.21-6-7.86-3.92-8.43-12.9-22.6-7.27-11.45-10.9-17.19-15.07-19.36-3.14-1.65-8.41-3.45-10.75-8.61A12.43,12.43,0,0,1,61,287.6a24.6,24.6,0,0,1,12.91-4.3c11.23-.24,19.79,8.56,28,17.21,10.94,11.57,8.69,14.41,17.21,21.52,3.17,2.64,13.18,10.78,28,11.83,4.22.3,16,1.14,25.82-6.45a30.63,30.63,0,0,0,3.46-3.14,59.48,59.48,0,0,1,6.23-17.3,60.34,60.34,0,0,1,7.53-10.76,132.06,132.06,0,0,1-42-8.61c-7.57-2.9-17.63-6.84-28-15.06-17.57-14-24.81-31.4-29-42,0,0-12.18-30.35-6.45-67.77,2.17-14.21,6.81-26.54,10.76-31.2,2.32-2.73,4-6,6.45-8.61a11.76,11.76,0,0,0,3.23-5.38,9.81,9.81,0,0,0,0-4.3c-1.68-8.11-1-16.55-2.15-24.74-1-6.9-.37-18.11,7.53-36.58a108.43,108.43,0,0,1,24.74,4.3c25,7.44,26.78,18,44.11,19.37,10.39.82,11.29-2.85,38.73-5.38,6.83-.64,12.45-.93,16.13-1.08,3.68.15,9.31.44,16.14,1.08,27.43,2.53,28.34,6.2,38.73,5.38,17.33-1.37,19.11-11.93,44.11-19.37A108.35,108.35,0,0,1,357.92,52c7.9,18.47,8.53,29.68,7.53,36.58-1.18,8.19-.47,16.63-2.15,24.74a9.81,9.81,0,0,0,0,4.3,11.67,11.67,0,0,0,3.23,5.38c2.41,2.65,4.13,5.88,6.45,8.61,3.95,4.66,8.59,17,10.76,31.2C389.46,200.23,377.29,230.58,377.29,230.58Z"/><ellipse class="cls-5" cx="163.83" cy="339.5" rx="5.83" ry="3.5" transform="translate(-47.98 27.67) rotate(-8.43)"/><ellipse class="cls-5" cx="146" cy="339.5" rx="5" ry="2.5"/><ellipse class="cls-5" cx="130" cy="334.5" rx="2.5" ry="4" transform="translate(-226.7 373.97) rotate(-75.08)"/><ellipse class="cls-5" cx="116.78" cy="325.3" rx="2.47" ry="3.7" transform="translate(-166.22 126.89) rotate(-35.22)"/><ellipse class="cls-5" cx="106.3" cy="313.35" rx="2.37" ry="3.72" transform="translate(-115.61 67.9) rotate(-23.38)"/><ellipse class="cls-5" cx="98.09" cy="302.91" rx="2.38" ry="2.97" transform="translate(-138.31 89.63) rotate(-30)"/><ellipse class="cls-5" cx="89.88" cy="293.39" rx="2.03" ry="2.71" transform="translate(-209.14 224.54) rotate(-60)"/><ellipse class="cls-5" cx="80" cy="287.5" rx="2" ry="2.5" transform="translate(-218.39 282.84) rotate(-73.55)"/></g></g></svg>