<svg xmlns="http://www.w3.org/2000/svg" xmlns:xlink="http://www.w3.org/1999/xlink" viewBox="0 0 456 456"><defs><style>.cls-1{fill:url(#Gradient_bez_nazwy_200);}.cls-2{fill:url(#Gradient_bez_nazwy_207);}.cls-3{fill:url(#Gradient_bez_nazwy_191);}.cls-4{fill:url(#Gradient_bez_nazwy_199);}.cls-5{fill:url(#Gradient_bez_nazwy_179);}</style><linearGradient id="Gradient_bez_nazwy_200" x1="98.45" y1="357.55" x2="474.01" y2="-18.01" gradientUnits="userSpaceOnUse"><stop offset="0.03" stop-color="#0073b1"/><stop offset="0.25" stop-color="#1e9cd7"/><stop offset="0.3" stop-color="#229fd8"/><stop offset="0.35" stop-color="#2ea9d9"/><stop offset="0.4" stop-color="#42badc"/><stop offset="0.45" stop-color="#5fd1e0"/><stop offset="0.47" stop-color="#6fdfe2"/><stop offset="0.49" stop-color="#65d2e1"/><stop offset="0.54" stop-color="#53bcde"/><stop offset="0.58" stop-color="#48afdd"/><stop offset="0.62" stop-color="#44aadc"/><stop offset="0.75" stop-color="#239dd7"/><stop offset="0.86" stop-color="#61a8d8"/></linearGradient><linearGradient id="Gradient_bez_nazwy_207" x1="396.39" y1="59.61" x2="43.37" y2="412.62" gradientUnits="userSpaceOnUse"><stop offset="0.04" stop-color="#fff" stop-opacity="0.5"/><stop offset="0.24" stop-color="#cce0f4" stop-opacity="0.1"/><stop offset="0.43" stop-color="#c2d5f4" stop-opacity="0.11"/><stop offset="0.53" stop-color="#a4b4f6" stop-opacity="0.14"/><stop offset="0.57" stop-color="#5f64ad" stop-opacity="0.27"/><stop offset="0.64" stop-color="#2a2574" stop-opacity="0.37"/><stop offset="0.83" stop-color="#1b1464" stop-opacity="0.4"/></linearGradient><linearGradient id="Gradient_bez_nazwy_191" x1="30.17" y1="343.44" x2="175.92" y2="197.68" gradientUnits="userSpaceOnUse"><stop offset="0.27" stop-color="#b3b3b3"/><stop offset="0.58" stop-color="#ccc"/><stop offset="0.67" stop-color="#ddd"/><stop offset="0.73" stop-color="#e6e6e6"/><stop offset="0.95" stop-color="#e6e6e6"/></linearGradient><linearGradient id="Gradient_bez_nazwy_199" x1="73.15" y1="119.94" x2="131.82" y2="61.27" gradientUnits="userSpaceOnUse"><stop offset="0.47" stop-color="#ccc"/><stop offset="0.82" stop-color="#e6e6e6"/><stop offset="0.95" stop-color="#e6e6e6"/></linearGradient><linearGradient id="Gradient_bez_nazwy_179" x1="177.33" y1="379.6" x2="375.55" y2="181.38" gradientUnits="userSpaceOnUse"><stop offset="0.21" stop-color="#b3b3b3"/><stop offset="0.33" stop-color="#ccc"/><stop offset="0.39" stop-color="#d6d6d6"/><stop offset="0.49" stop-color="#e2e2e2"/><stop offset="0.58" stop-color="#e6e6e6"/><stop offset="0.74" stop-color="#f2f2f2"/><stop offset="0.87" stop-color="#e6e6e6"/></linearGradient></defs><title>Linkedin_1</title><g id="Warstwa_2" data-name="Warstwa 2"><g id="Warstwa_1-2" data-name="Warstwa 1"><rect class="cls-1" width="456" height="456" rx="89.5"/><path class="cls-2" d="M366.5,0H89.5C40.27,0,0,40.28,0,89.5v277C0,415.72,40.27,456,89.5,456h277c49.22,0,89.5-40.28,89.5-89.5V89.5C456,40.28,415.72,0,366.5,0Zm57.23,352.1a71.85,71.85,0,0,1-71.64,71.64H103.9A71.85,71.85,0,0,1,32.26,352.1V103.9A71.85,71.85,0,0,1,103.9,32.26H352.09a71.85,71.85,0,0,1,71.64,71.64Z"/><rect class="cls-3" x="67.73" y="160.12" width="70.64" height="220.88"/><circle class="cls-4" cx="102.48" cy="90.61" r="41.48"/><path class="cls-5" d="M339.06,156.76C305,145.57,266.48,159.21,246,190.39V160.12H178.73V381h70.63V254.3c.12-1,.23-2,.34-3a47.63,47.63,0,0,1,5.27-16c2.16-4,10.58-19.45,28-22.42,2.84-.49,14.81-2.15,25.79,5.6,15.81,11.17,14.66,31.33,14.57,32.52V381H394V228.52C391.59,195.28,369.72,166.82,339.06,156.76Z"/></g></g></svg>